inDegrees=yes
name=ik_S48_A01_T01
DataType=double
version=3
OpenSimVersion=4.3-2021-08-27-4bc7ad9
endheader
time	pelvis_tilt	pelvis_list	pelvis_rotation	pelvis_tx	pelvis_ty	pelvis_tz	hip_flexion_r	hip_adduction_r	hip_rotation_r	knee_angle_r	knee_angle_r_beta	ankle_angle_r	subtalar_angle_r	mtp_angle_r	hip_flexion_l	hip_adduction_l	hip_rotation_l	knee_angle_l	knee_angle_l_beta	ankle_angle_l	subtalar_angle_l	mtp_angle_l	lumbar_extension	lumbar_bending	lumbar_rotation	arm_flex_r	arm_add_r	arm_rot_r	elbow_flex_r	pro_sup_r	wrist_flex_r	wrist_dev_r	arm_flex_l	arm_add_l	arm_rot_l	elbow_flex_l	pro_sup_l	wrist_flex_l	wrist_dev_l
24.15999999999957	1.673250122253292	-2.834729678906948	102.0283681469437	0	0.9399999999999999	0	0.8149339418979152	-4.578412801722014	-11.81481988060131	2.228334032537331	0.03889176570201888	0	0	0	6.437675744462133	-4.866897365639626	-4.62428535021168	5.866726123129134	0.1023936871613656	0	0	0	0	0	0	37.00084939047203	-37.00084939047203	4.759350287639032	81.64968776958085	85.24064997633657	0	0	37.00084939047203	-37.00084939047203	4.759350287639032	81.64968776958085	85.24064997629146	0	0
24.17999999999957	1.649382112510123	-3.068227364700679	101.9673241931569	0	0.9399999999999999	0	1.027370989615047	-4.727239807654072	-11.77962313010661	3.779567719910588	0.0659659010145346	0	0	0	5.806673664414059	-4.61843336047484	-4.53170229202546	4.897461726451991	0.08547683211699311	0	0	0	0	0	0	37.00243118193127	-37.00243118193127	4.759445575882572	81.65101598754774	85.24055468809755	0	0	37.00243118193127	-37.00243118193127	4.759445575882572	81.65101598754774	85.24055468805244	0	0
24.19999999999957	1.342961036144763	-3.503594825282264	101.8308030501136	0	0.9399999999999999	0	1.396499130606484	-5.175491570404819	-11.65607634291978	5.563953025659649	0.09710929972406142	0	0	0	5.753257757363491	-4.105040635868074	-4.314699873847597	4.393525663518416	0.07668148859926487	0	0	0	0	0	0	37.00453468205934	-37.00453468205934	4.759572395149199	81.65278371829621	85.24042786883692	0	0	37.00453468205934	-37.00453468205934	4.759572395149199	81.65278371829621	85.24042786879187	0	0
24.21999999999957	1.142922671161295	-3.625665875870641	101.7492830467223	0	0.9399999999999999	0	1.459012904076608	-5.462380477513137	-11.60252866341875	7.336936978159372	0.1280537072802043	0	0	0	5.527517105128624	-3.645564689805993	-3.871689853407464	4.03255397054406	0.07038134405036428	0	0	0	0	0	0	37.00596226324552	-37.00596226324552	4.759658408079394	81.65398264663968	85.24034185591083	0	0	37.00596226324552	-37.00596226324552	4.759658408079394	81.65398264663968	85.24034185586578	0	0
24.23999999999957	0.7295556457867231	-3.850172420574361	101.5074587598025	0	0.9399999999999999	0	1.590186667312128	-5.980195372863069	-11.47735191276177	9.105971225059344	0.1589291794691471	0	0	0	5.351189843818696	-2.981278047366714	-3.667839063797685	3.732260549179928	0.06514023512548149	0	0	0	0	0	0	37.00753331652525	-37.00753331652525	4.759753087902457	81.65530238243265	85.24024717609227	0	0	37.00753331652525	-37.00753331652525	4.759753087902457	81.65530238243265	85.24024717604722	0	0
24.25999999999957	0.7404745754419735	-3.853780889759189	101.5071245330128	0	0.9399999999999999	0	1.560354968171517	-6.032361278074163	-11.6224267985866	10.65813171520435	0.1860194905415465	0	0	0	5.036516184217332	-2.815179031811005	-3.257754064859486	3.463827244948309	0.0604551901446321	0	0	0	0	0	0	37.00947215323285	-37.00947215323285	4.75987003819902	81.65693254877021	85.24013022580128	0	0	37.00947215323285	-37.00947215323285	4.75987003819902	81.65693254877021	85.24013022575626	0	0
24.27999999999957	-0.006795236020096052	-3.649225161041742	100.8265759695338	0	0.9399999999999999	0	9.082212366140725	-9.07769213121477	-10.09809202045008	19.60665317099974	0.3422006531305323	0	0	0	4.304130323394642	-1.993678295613763	-3.576560465465844	3.164918428367251	0.05523824713205283	0	0	0	0	0	0	37.1582214900235	-37.1582214900235	4.767442820248122	81.76241989673696	85.2325574441014	0	0	37.1582214900235	-37.1582214900235	4.767442820248122	81.76241989673696	85.23255744405779	0	0
24.29999999999957	0.06566721255047898	-3.483461362120596	100.6309560447423	0	0.9399999999999999	0	10.81604221198177	-9.153053842421862	-10.83557022173703	21.92110433607648	0.3825954463377401	0	0	0	3.755840188736455	-1.946622234392294	-3.451867066670852	2.889636837602334	0.05043367700307741	0	0	0	0	0	0	37.19339038852983	-37.19339038852983	4.769234422912836	81.78737658792589	85.23076584151933	0	0	37.19339038852983	-37.19339038852983	4.769234422912836	81.78737658792589	85.23076584147601	0	0
